<?xml version="1.0" encoding="UTF-8"?>
<svg id="Layer_2" data-name="Layer 2" xmlns="http://www.w3.org/2000/svg" viewBox="0 0 79.61 51.28">
  <defs>
    <style>
      .cls-1 {
        fill: #231f20;
      }
    </style>
  </defs>
  <g id="Layer_1-2" data-name="Layer 1">
    <g>
      <path class="cls-1" d="M44.79,1.43v2.51c0,.51-.27.98-.71,1.24L10.78,24.4c-.95.55-.95,1.93,0,2.47l33.3,19.22c.44.26.71.73.71,1.24v2.51c0,1.1-1.19,1.79-2.14,1.24L.71,26.88c-.95-.55-.95-1.93,0-2.47L42.65.19c.95-.55,2.14.14,2.14,1.24Z"/>
      <path class="cls-1" d="M62.2,1.43v2.51c0,.51-.27.98-.71,1.24L28.19,24.4c-.95.55-.95,1.93,0,2.47l33.3,19.22c.44.26.71.73.71,1.24v2.51c0,1.1-1.19,1.79-2.14,1.24L18.12,26.88c-.95-.55-.95-1.93,0-2.47L60.06.19c.95-.55,2.14.14,2.14,1.24Z"/>
      <path class="cls-1" d="M79.61,1.43v2.51c0,.51-.27.98-.71,1.24l-33.3,19.22c-.95.55-.95,1.93,0,2.47l33.3,19.22c.44.26.71.73.71,1.24v2.51c0,1.1-1.19,1.79-2.14,1.24l-41.93-24.21c-.95-.55-.95-1.93,0-2.47L77.47.19c.95-.55,2.14.14,2.14,1.24Z"/>
    </g>
  </g>
</svg>